<?xml version="1.0" encoding="UTF-8"?>
<svg width="1016px" height="278px" viewBox="0 0 1016 278" version="1.1" xmlns="http://www.w3.org/2000/svg" xmlns:xlink="http://www.w3.org/1999/xlink">
    <!-- Generator: Sketch 51.2 (57519) - http://www.bohemiancoding.com/sketch -->
    <title>bottle</title>
    <desc>Created with Sketch.</desc>
    <defs></defs>
    <g id="Page-1" stroke="none" stroke-width="1" fill="none" fill-rule="evenodd">
        <g id="bottle" transform="translate(1.000000, 2.000000)" fill-rule="nonzero" stroke="#C23232" stroke-width="3">
            <path d="M61.5237101,74.4536795 C63.1540931,75.5976518 64.0078942,76.5261839 64.0078942,76.5261839 C67.4386318,79.0968561 72.8325429,82.836097 80.1914214,78.9782945 C93.6378173,70.8238914 105.5564,72.1098256 115.947171,82.836097 C136.116764,95.0677016 225.143781,104.227259 362.026877,31.7237196 C443.229873,-4.276149 495.740477,-7.12356984 585.868885,10.9932465 C675.562031,29.0225704 679.816748,63.6184145 902.924942,15.4322791 C980.630329,-1.35026136 1021.86535,-0.528397784 1011.74841,44.2114922 C990.253362,139.268487 990.253362,139.268487 1011.74841,231.677973 C1022.15432,276.414055 980.630329,277.239727 902.924942,260.457186 C679.816748,212.271051 686.250209,249.743973 585.868885,264.896219 C487.555988,279.736242 417.101848,279.695361 362.026877,244.165746 C225.143781,171.662207 136.116764,180.821764 115.947171,193.053368 C105.5564,203.77964 93.6378173,205.065574 80.1914214,196.911171 C72.8325429,193.053368 67.4386318,196.792609 64.0078942,199.363281 C64.0078942,199.363281 61.2516854,202.441333 56.0981284,204.222906 C55.7185758,206.058191 62.2907213,207.488878 61.0243502,213.706645 C44.7502581,216.539095 21.5415521,211.064802 13.9415929,197.233282 C-3.62288095,142.098946 -3.62288095,122.626122 13.9415929,81.8844171 C22.9914375,64.5571804 42.6630077,62.2990089 58.9370998,65.131459 C61.0284463,65.3857148 61.7770985,67.4973908 61.9353818,69.2276845 C61.9353818,71.264048 61.7834479,72.9902048 61.5237101,74.4536795 Z" id="Bottle-And-Cap-Copy-2"></path>
            <path d="M117.5,148.5 C111.528045,146.017839 110.869466,140.531787 110.812143,139.75464 C99.7317342,141.859149 94.1915298,140.845213 94.1915298,136.712832 C94.2631211,135.404746 92.7799519,135.265202 89.7800199,136.354921 C78.775797,140.559872 77.9133583,139.277191 73.2116022,133.384558 C71.7076663,131.4997 69.4988574,132.54372 66.5851754,136.516618 C63.8693099,137.397174 50.6460812,140.03253 45.9886426,133.456701 L45.7324625,132.920042 C43.9743805,129.064139 39.3291126,129.064139 39.3291126,130.053345 C39.3291126,136.251917 33.7649178,137.228659 22.7606949,133.023708 C19.7607629,131.933989 18.2775937,132.073534 18.349185,133.38162 C18.349185,137.514001 12.8089806,138.527936 1.72857178,136.423428 C1.65391116,137.435635 1.47886453,138.323976 1.20343191,139.088452 C0.318424807,141.544831 -3.88571726,141.353474 -12.5,142.287271" id="cap-line" transform="translate(52.500000, 139.000000) rotate(-90.000000) translate(-52.500000, -139.000000) "></path>
            <g id="words" transform="translate(729.500000, 138.527270) rotate(-360.000000) translate(-729.500000, -138.527270) translate(566.000000, 44.527270)">
                <g id="Cola" transform="translate(72.000000, 0.000000)">
                    <path d="M219.358243,82.6285672 L209.180157,83.2067763 C208.522434,84.476183 207.150669,87.1345232 207.150669,87.1345232 C192.761969,67.8560656 164.89127,113.728599 156.271016,127.975952 C156.271016,127.975952 146.355093,141.610589 141.477133,142.722664 C129.605582,142.531256 143.291409,117.412988 148.546875,111.060377 C155.64199,105.80349 164.201172,98.7901131 171.067351,91.7161052 C187.0454,75.2544253 203.888794,51.9605233 207.150669,47.0320565 C204.408325,47.289991 202.748901,47.289991 199.168701,47.0320565 C187.000017,65.8301052 158.546217,95.2757804 150.969283,99.2425656 C161.095703,69.6953865 201.977519,22.6845882 222.615073,5.91853897 C222.860717,5.87320309 218.243945,14.0900346 211.769097,25.1868416 C214.454155,24.9440438 217.505094,23.9806368 219.358243,23.284742 C221.505755,18.6403563 228.528268,10.1760383 227.725841,4.05503866 C227.42368,2.0565485 226.22572,0.624159402 224.600871,0.294582571 C219.308845,-0.743773382 213.543061,3.85981736 208.824962,7.64354229 C184.357869,29.5580801 154.7715,67.974223 135.629107,109.506869 C131.749692,110.519111 132.075927,110.521655 130.011804,111.060377 C131.919612,107.04421 141.636834,87.0298074 130.910724,82.6285672 C114.000227,79.1109602 100.263672,98.2425656 91.7051683,115.101401 C82.7431641,134.507887 75.0195312,162.765699 94.0869141,157.643629 C109.511681,153.500074 119.377643,132.894334 127.103518,119.14099 C127.376035,119.084508 130.465765,118.891397 133.467676,118.090943 C132.21053,120.707611 119.037663,147.964233 125.625,159.800855 C130.69941,168.897164 142.037689,155.63805 150.747895,144.302645 C148.587667,158.029428 148.587667,165.110426 156.271016,165.110426 C163.82961,165.110426 176.558183,151.328368 179.56844,147.900282 C179.56844,159.339521 178.820198,163.467843 182.598032,166.647535 C191.655008,174.270525 211.769097,139.770582 219.358243,124.478475 L211.769097,126.015699 C184.327148,174.222486 186.88623,150.939527 188.982422,143.471754 C190.562625,137.842211 200.687899,117.561149 219.358243,82.6285672 Z M95.5390625,142.722664 C90.5519247,137.693132 101.131087,112.360426 110.845872,104.839878 C112.998869,110.929376 118.336953,114.339161 121.526308,115.963798 C117.124075,125.846356 101.131087,150.167204 95.5390625,142.722664 Z M123.820689,111.011208 C123.432761,111.303899 116.83759,109.306441 115.787011,102.392057 C114.868647,96.4269859 118.795317,91.8361242 122.475988,89.4820281 C124.078977,88.125401 126.401224,87.7155692 128.098071,88.3698405 C132.85466,89.6240266 126.112591,107.00423 123.820689,111.011208 Z M164.116118,143.087679 C164.27767,135.889217 169.735659,124.727958 176.38671,114.371622 C182.661816,104.60067 189.998921,95.5462162 194.951881,91.2123432 C196.691039,89.8304808 201.460023,87.5299817 201.055737,92.8581164 C198.776463,115.963798 165.06543,155.049879 164.116118,143.087679 Z" id="ola"></path>
                    <path d="M32.7949219,154.84773 C36.5761894,149.939405 43.7490234,140.512769 53.6591797,138.099507 C49.5683594,129.899488 61.0410156,106.030347 69.4257248,115.506098 C76.1660156,126.024488 46.2734375,180.676812 28.0588527,172.823492 C23.0801838,169.527902 20.5593388,165.656247 21.0635078,156.821262 C21.0635078,141.483551 28.0588527,120.909254 43.7490234,90.0606209 C61.9550781,56.7618241 96.779905,14.0918709 115.891982,28.0494565 C115.891982,28.0494565 96.779905,38.9513397 86.696525,62.9320139 C84.1126588,69.0323609 80.5834758,77.2362757 84.17568,84.4585255 C86.0663137,88.2449478 89.4064333,88.5254235 92.0533206,88.3150667 C104.405461,85.1597148 129.024919,62.9320139 125.895665,28.9243327 C154.477985,12.0086797 171.464259,29.2357343 178.20752,32.531324 C180.43571,29.5434124 183.248535,26.28426 186.645996,22.7538668 C148.139467,-3.92427343 120.573864,22.7538668 120.573864,22.7538668 C115.406132,16.513282 105.961301,16.0742334 99.7222099,17.7570878 C77.2866894,24.9092187 57.4897181,43.3688323 35.1172187,73.6602103 C18.7317262,97.3604087 8.52230392,117.905255 3.10248716,138.099507 C-1.05690709,151.70258 -2.38035072,168.756594 7.82907154,180.676812 C16.5259868,190.773938 27.9958316,188.600251 36.1255567,184.954067 C56.1884766,175.06941 68.1252891,157.680161 76.0029297,133.769605 C77.8305423,126.757712 81.4377457,116.572996 78.1606471,108.930032 C70.1290034,89.9405772 38.1716403,106.044955 32.7949219,154.84773 Z M92.9356164,82.5653144 C89.8475812,83.2665037 84.4907856,81.7238873 89.2803911,69.2427176 C96.275736,52.4141744 108.186729,38.1800315 120.980017,30.8175438 C121.295123,32.0796845 120.573864,63.9221598 92.9356164,82.5653144 Z" id="C"></path>
                    <path d="M204.06839,30.8938859 C201.799805,33.065992 198.720703,36.3797998 195.590332,40.5698983 C212.116531,45.2123741 229.575078,36.3797998 239.321298,26.5071929 C249.650173,16.5170551 255,4 255,4 C255,4 247.266586,13.8726068 235.772403,21.0419999 C226.396963,26.9773171 215.880385,32.2454928 204.06839,30.8938859 Z" id="C-~"></path>
                </g>
                <g id="-a-" transform="translate(0.000000, 82.000000)">
                    <path d="M42.8998175,54.730171 C42.9541384,54.6701102 72.8460159,0.278828869 72.8460159,0.278828869 L59.5374096,0.278828869 C59.5374096,0.278828869 55.9368196,4.36846044 55.8281779,4.18827811 C47.5714099,-8.42448504 30.401985,12.2364222 17.4193037,33.4979373 C9.97734838,45.690275 7.8199291,54.9886979 7.8199291,54.9886979 C4.39771604,68.2020688 9.01498762,70.9648646 11.8939923,71.9858978 C20.6396478,74.8087543 33.9068618,63.0672788 33.9068618,63.0672788 C33.9068618,88.6562997 63.0429788,50.8582512 70.2133299,39.3866428 L63.4398574,39.3866428 C62.8759066,39.3866428 52.351644,54.9103533 45.0183304,58.8143038 C40.7867871,60.957805 40.0806162,59.5964274 42.8998175,54.730171 Z M32.6874992,50.3177042 C29.8628154,55.0625055 27.0381316,59.2066992 22.3665392,62.0295557 C21.7146891,62.2697988 17.4193037,64.7937821 18.7270428,58.9063953 C18.998647,55.2426879 22.3665392,44.0113226 32.7961409,28.5156421 C35.4035413,24.5516309 42.8998175,13.9208733 44.7467261,12.1791108 C50.9393021,6.17303312 53.38374,8.81570731 53.6010234,10.6775914 C54.4934204,13.6850587 32.6874992,50.3177042 32.6874992,50.3177042 Z" id="a"></path>
                    <polygon id="right" points="78.9960937 29.5449959 84.9970703 17.6231209 69.1738281 17.7530037 63 29.3935533"></polygon>
                    <polygon id="left--" points="14.7978516 27.9307381 22.1542969 17.0315682 6.83691406 17.1358162 0.203305625 28.0724137"></polygon>
                </g>
            </g>
            <path d="M562.037518,173.426186 C558.918458,177.741994 555.794438,181.829238 550.924327,185.55384 C533.906299,198.737746 532.652692,183.121974 538.507769,170.351912 C542.174032,162.370623 534.349023,157.286246 534.349023,157.286246 C534.349023,157.286246 540.094659,147.117493 546.60638,140.909824 C547.044143,140.495979 547.481906,140.141255 547.919669,139.727411 C550.600966,137.480826 553.336983,136.002809 555.908839,136.239292 C556.237161,136.298412 556.510763,136.416654 556.784365,136.594016 C558.316534,137.539946 558.535416,139.963893 557.60517,141.619272 C555.197475,141.560151 553.227542,142.32872 551.640652,144.102339 C548.521592,147.649579 547.427185,151.019456 548.412152,154.211972 C551.804813,161.838537 562.858323,147.294855 562.36584,138.426756 C562.31112,137.185222 562.146959,136.357533 561.873357,135.648085 C561.216713,133.578862 559.958145,131.746122 558.261814,130.74107 C554.759712,128.494485 549.397118,129.085692 545.949736,130.859312 C541.298507,132.751173 534.786785,140.5551 530.463878,145.698597 L526.305132,151.847146 L524.116318,150.073526 L563.460247,76.9412709 C554.814432,89.1792473 541.353227,91.1893497 541.353227,91.1893497 L502.118739,160.183159 C496.920306,168.105327 490.572746,176.618702 484.006304,182.944612 C484.006304,182.944612 474.04224,192.175353 469.445731,184.548788 C467.804121,181.356273 467.5902,178.037598 468.520446,174.963323 C473.82832,158.646021 482.966617,143.806736 493.418204,134.820396 C496.373102,132.337328 499.546882,131.62788 501.133772,132.692052 C502.665942,133.637983 502.884823,136.06193 501.954578,137.717308 C499.546882,137.658188 497.57695,138.426756 495.99006,140.200376 C492.871,143.747615 491.776593,147.117493 492.761559,150.310009 C496.154221,157.936574 507.15301,143.097288 506.715248,134.170069 C506.551087,130.977553 504.964197,127.9624 502.611222,126.484383 C499.10912,124.237798 493.746526,124.829005 490.299144,126.602624 C485.647914,128.494485 478.315388,135.115999 474.047201,140.200376 C474.047201,140.200376 465.674988,150.014405 461.899284,155.571747 C461.24264,156.517678 459.382148,159.296349 458.561343,160.833486 C457.357495,162.666226 447.01535,178.333201 440.175306,181.88044 C440.175306,181.88044 438.862018,182.589888 438.095933,181.998682 C437.165687,181.111872 437.54873,179.16089 438.095933,177.919356 C438.150654,177.860236 466.167471,125.183729 466.167471,125.183729 L452.925147,125.183729 C452.925147,125.183729 451.502418,127.844158 451.338257,128.02152 C451.228816,127.9624 451.009935,127.548555 450.900494,127.371193 C442.692442,115.133217 425.142944,132.801739 411.827148,153.299316 C404.16748,165.090173 401.02832,172.494141 398.916165,179.929459 C395.523504,192.758642 409.104492,198.630859 422.878717,184.253185 C422.605115,188.568993 421.358832,192.234474 425.517578,195.072266 C429.457443,196.609403 433.986947,194.185456 436.996566,191.997991 C442.961084,187.445701 447.562553,182.826371 452.377944,176.50046 C451.83074,178.983528 451.557139,181.407475 451.83074,183.65406 C452.159062,186.37361 452.591865,194.835783 461.511281,197.791816 C473.330876,199.92016 482.091092,192.157333 490.463305,183.348354 C487.932104,187.589425 485.828776,191.424967 484.15332,194.85498 C481.640137,200 494.333612,206.486441 495.99006,201.291016 C497.094358,197.827399 505.217789,182.66647 520.360352,155.80823 L523.459674,157.345367 C523.459674,157.345367 529.095869,161.129089 526.08625,168.164448 C526.08625,168.164448 524.554081,171.652566 524.554081,171.652566 C523.021911,175.613651 522.415027,180.23298 522.524467,184.016702 C522.688628,189.278441 524.001917,194.835783 529.911714,197.910057 C533.96102,200.097522 538.338647,199.624556 542.004911,198.205661 C547.203344,196.195558 553.988667,191.111181 558.694616,185.731202 C560.445667,183.78022 564.554654,178.27408 571.996621,165.090173 L567.400112,165.090173 C567.345392,165.090173 566.798188,165.858742 566.086824,167.041155 L562.037518,173.426186 Z M428.02739,171.356963 C425.236652,175.968375 422.391194,179.988579 417.794685,182.70813 C417.138041,182.885492 416.043634,183.003733 415.332269,182.412526 C414.456744,181.82132 414.128422,180.757148 414.237862,179.692976 C414.511464,176.145737 416.862933,165.149294 427.205078,150.073526 C429.776934,146.230683 436.026855,138.426756 440.065866,134.28831 C446.194545,128.435365 448.65696,131.036674 448.875842,132.869414 C443.130205,143.984098 436.399603,156.69504 429.997322,168.105327 C429.997322,168.046206 428.02739,171.356963 428.02739,171.356963 Z" id="ack"></path>
            <path d="M581.245413,216.575281 C562.475859,205.89719 516.251058,202.177299 476.123047,213.560547 C433.298261,223.986796 416.578256,229.030999 400.397606,218.806223 C384.370117,210.134766 388.049805,191.070312 392.536582,173.712891 C401.546026,138.859208 405.311985,132.675024 409.250242,127.184873 C455.649873,109.345861 510.289073,53.8574047 514.496042,47.9139388 C518.756946,41.9704729 524.689851,34.8685348 520.105334,26.9103347 C510.101562,15.8222656 489.671875,26.9103347 473.558998,37.3648513 C432.317836,66.6421104 403.584187,103.453803 395.395164,117.755437 C392.860195,117.805805 385.746306,118.867685 380.460627,118.968422 C394.537792,84.7683089 421.877494,68.3546344 421.877494,68.3546344 C421.877494,68.3546344 388.665064,72.6295353 360.67254,118.968422 C322.108659,113.679745 340.927734,54.0801798 395.395164,66.6421104 C378.729095,59.5996094 338.708954,59.5996094 322.528305,84.4375 C306.347655,109.275391 338.708954,127.335978 358.017863,127.58782 C336.173986,169.343187 308.417969,191.835937 289.088295,182.424225 C265.770214,171.070537 278.085454,122.097669 301.277718,130.717219 C307.499291,133.029506 308.289333,138.719227 305.700429,142.799063 C304.459913,144.763429 301.277718,147.281847 301.277718,147.281847 C311.309721,147.281847 315.217851,156.204413 316.18869,169.199449 C321.096821,159.176146 323.984563,152.167577 322.528305,144.209377 C319.723659,129.401081 310.338882,123.356878 299.82146,122.097669 C292.809845,121.241407 285.528553,122.752458 278.085454,128.292977 C262.228417,140.028804 251.3087,183.703542 288.225327,197.146519 C317.18869,207.693359 348.740957,186.367691 366.647543,152.217946 C369.182511,147.382584 375.223287,134.085338 377.650385,127.839662 L391.536582,127.184873 C387.167807,133.883864 384.446257,140.784329 381.371934,147.835899 C375.115416,163.09751 365.12379,199.515143 374.562503,216.942594 C381.843795,228.980631 396.460315,236.175938 413.611804,234.413046 C425.693355,232.952364 443.202005,228.973264 452.96433,226.555583 C462.726655,224.137901 525.276366,206.962292 542.535726,234.715256 C542.535726,234.715256 547.76747,224.641585 561.521022,224.087533 C572.793541,222.878693 589.189933,226.505214 601.271484,234.413046 C597.172386,228.973264 590.738061,222.015063 581.245413,216.575281 Z M506.675394,29.1769107 C517.947914,26.2051777 516.383784,33.760431 515.736558,35.7751652 C513.687009,41.9704729 458.177628,91.4214555 413.611804,115.495131 C413.77361,115.041815 437.013001,78.4647517 506.675394,29.1769107 Z" id="H"></path>
        </g>
    </g>
</svg>